<svg width="26" height="15" viewBox="0 0 26 15" fill="none" xmlns="http://www.w3.org/2000/svg">
<g opacity="0.2">
<rect opacity="0.01" width="14.9903" height="14.9903" transform="matrix(0.866589 -0.500325 0.866589 0.500325 0 7.5)" fill="black"/>
<path d="M16.3949 11.1593C15.4873 11.6783 14.2569 11.9654 12.9795 11.9562C11.7605 11.9751 10.5785 11.7132 9.6941 11.2284C8.80973 10.7437 8.29562 10.0757 8.26512 9.37183L8.22723 4.74995C8.22802 4.25401 8.58001 3.77982 9.20151 3.43745C9.85396 3.06332 10.7393 2.85615 11.6589 2.86245C13.4874 2.84245 15.0032 3.6758 15.058 4.73121L15.0742 9.36558C15.076 9.66582 14.8694 9.95394 14.5005 10.1656C14.1037 10.3953 13.563 10.5226 13.0012 10.5187C11.8765 10.5292 10.9469 10.0148 10.9173 9.36558L10.9011 5.08746C10.974 4.87889 11.2939 4.72993 11.6624 4.73299C12.0309 4.73605 12.3433 4.89027 12.4058 5.09996L12.422 9.37808C12.4483 9.54134 12.6964 9.66231 12.9795 9.64996C13.1324 9.65026 13.2796 9.61671 13.3909 9.55621C13.4729 9.51021 13.5197 9.44721 13.5208 9.38121L13.4992 4.74996C13.4473 4.18058 12.6132 3.74075 11.6264 3.76246C10.6587 3.75198 9.84577 4.18016 9.77525 4.73745L9.77525 9.35621C9.80435 9.82664 10.1572 10.2709 10.7557 10.5906C11.3541 10.9103 12.1487 11.079 12.9633 11.0593C13.8302 11.0683 14.6669 10.8758 15.2853 10.525C15.8181 10.2223 16.12 9.80959 16.1243 9.37808L16.1026 4.74683C16.1012 4.50262 16.4428 4.30394 16.8658 4.30308C17.2888 4.30222 17.6329 4.49949 17.6344 4.74371L17.6561 9.37496C17.6662 10.0432 17.212 10.6859 16.3949 11.1593Z" fill="black"/>
</g>
</svg>
