<svg width="25" height="15" viewBox="0 0 25 15" fill="none" xmlns="http://www.w3.org/2000/svg">
<g opacity="0.2">
<rect opacity="0.01" width="14.2407" height="14.2407" transform="matrix(0.877764 -0.506777 0.877764 0.506777 0 7.21688)" fill="black"/>
<rect opacity="0.01" width="14.2407" height="14.2407" transform="matrix(0.877764 -0.506777 0.877764 0.506777 0 7.21688)" fill="black"/>
<path fill-rule="evenodd" clip-rule="evenodd" d="M7.29164 10.2239C4.41516 8.56313 4.41516 5.87054 7.29164 4.2098C8.67298 3.41228 10.5465 2.96425 12.5 2.96425C14.4535 2.96425 16.327 3.41228 17.7083 4.2098C20.5848 5.87054 20.5848 8.56313 17.7083 10.2239C14.8318 11.8846 10.1681 11.8846 7.29164 10.2239ZM9.37498 4.33606C8.99854 4.47182 8.6492 4.63116 8.33331 4.81117C6.03213 6.13976 6.03213 8.29383 8.33331 9.62242C8.58559 9.76716 8.85919 9.89897 9.15102 10.0163C10.1094 9.78781 11.5104 9.33976 11.6666 8.60605C11.7916 8.10688 11.375 7.86631 10.6666 7.45736C10.0303 7.14194 9.54894 6.73541 9.27081 6.2786C9.13122 5.9276 9.16368 5.56108 9.36456 5.22013C9.37352 5.19772 9.38266 5.17543 9.39178 5.1532C9.43039 5.05908 9.4685 4.96618 9.48956 4.87131C9.52817 4.69017 9.48882 4.50632 9.37498 4.33606ZM10.8334 10.4644C11.2622 10.319 11.6591 10.1444 12.0156 9.94421C12.6202 9.61388 13.013 9.17506 13.1302 8.6993C13.3229 7.78215 12.4271 7.26494 11.7084 6.84997C11.2529 6.6326 10.8999 6.35228 10.6823 6.03506C10.6278 5.82954 10.6655 5.61937 10.7917 5.42464C10.8605 5.27316 10.9144 5.11956 10.9531 4.96456C11.0212 4.63008 10.9368 4.29114 10.7084 3.98126C11.8161 3.77465 13.005 3.76209 14.125 3.94518C13.4844 4.43532 12.6719 5.18708 13.4323 5.86667C13.6168 6.02745 13.8278 6.17751 14.0625 6.31472C14.3434 6.4574 14.5552 6.63977 14.6771 6.84396L14.7136 6.92515C14.9375 7.44536 15.1979 8.03474 16.5938 8.24523C16.7656 8.2723 16.9375 8.29334 17.1094 8.31439L17.1094 8.3144C17.4081 8.32681 17.6958 8.38494 17.9427 8.48279C17.6563 8.90889 17.222 9.29671 16.6667 9.62245C15.1352 10.4979 12.8982 10.8208 10.8334 10.4644ZM17.4375 7.48145C17.7526 7.51539 18.0613 7.56675 18.3594 7.63481L18.3698 7.65886C18.6773 6.31646 17.5661 4.99783 15.5469 4.30903C15.0833 4.61875 14.3802 5.14498 14.6771 5.41261C14.8171 5.53009 14.9758 5.63982 15.151 5.74037C15.6103 5.98252 15.95 6.29071 16.1354 6.63346L16.1719 6.71465C16.3646 7.2048 16.4583 7.34312 17.0156 7.43033C17.1562 7.45137 17.2968 7.46641 17.4374 7.48144L17.4375 7.48145Z" fill="black"/>
</g>
</svg>
