<svg width="76" height="30" viewBox="0 0 76 30" fill="none" xmlns="http://www.w3.org/2000/svg">
<path fill-rule="evenodd" clip-rule="evenodd" d="M52.9001 24.5521C53.7297 23.6638 54.5009 22.8381 55.3711 22.4828C55.5657 19.4706 57.1442 16.676 58.7929 14.1978C58.9451 13.9581 59.1328 13.7539 59.3174 13.553C59.4726 13.3842 59.6255 13.2178 59.7534 13.0347C60.9541 11.3101 62.675 9.26467 64.6762 9.26467C65.5166 9.26467 66.5572 9.50531 67.3977 10.2272C67.7579 10.5481 67.878 10.7085 67.998 11.0294C68.5984 12.5935 68.8385 12.8743 69.759 12.8743C69.9926 12.8743 70.2685 12.8561 70.6057 12.8338C71.1353 12.7989 71.8159 12.754 72.7207 12.754C74.6017 12.754 75.8424 13.4759 75.8424 14.1577C75.8424 14.5588 75.5222 14.7192 75.122 14.8796C74.8711 14.9694 74.7486 15.0592 74.6359 15.1418C74.497 15.2437 74.3729 15.3346 74.0414 15.401C73.5628 15.4778 73.1209 15.6004 72.6717 15.725C72.1819 15.8609 71.6835 15.9991 71.1198 16.0828C70.5595 16.163 70.0392 16.163 69.6389 16.163C69.4789 16.163 69.3588 16.2834 69.2787 16.6042C68.2382 20.8555 66.8774 24.2245 64.396 26.9518L64.3134 27.0415C63.3646 28.0732 62.1459 29.3983 60.4738 29.3983C60.0336 29.3983 59.5533 29.278 59.1531 29.0774C57.6821 28.3593 56.4599 27.463 56.0225 26.5565C54.7103 28.1063 52.8131 29.9999 50.8284 29.9999C50.5883 29.9999 50.3482 29.9598 50.108 29.9197C48.6272 29.5988 47.5066 28.917 46.7862 28.155C46.4824 27.8354 46.2709 27.5504 46.1253 27.2519C44.868 28.6199 43.2375 29.9999 41.5432 29.9999C41.3031 29.9999 41.063 29.9598 40.8228 29.9197C39.342 29.5988 38.2214 28.917 37.501 28.155C36.7777 27.394 36.5773 26.8294 36.5453 25.8104C35.3808 26.8154 33.768 27.9469 31.1374 29.4384C30.5771 29.7593 30.0568 29.8796 29.3764 29.8796C28.1758 29.8796 26.855 29.3582 25.014 28.3956C24.0134 27.8742 23.293 26.7512 22.8528 25.4678C22.5326 24.5454 22.3325 23.5828 22.3325 22.6604C22.3325 22.0989 22.4125 21.5775 22.5726 21.016C23.0619 19.3084 23.8143 17.7078 24.7428 16.19L24.6963 16.1766C24.3889 16.0886 24.0887 16.0026 23.8934 16.0026C23.6932 16.0026 22.1724 16.7646 21.0518 17.4866C17.7299 19.6122 14.7282 22.8208 13.6877 27.5534C13.5276 28.2753 13.2074 28.7967 12.607 29.3181C12.3269 29.5587 12.0067 29.6389 11.7266 29.6389C11.0862 29.6389 10.646 29.3582 9.92555 28.5561C9.4853 28.0748 9.16512 27.4331 9.16512 26.9518C9.16512 26.0478 9.72834 25.2426 10.2869 24.4441C10.67 23.8964 11.0509 23.3518 11.2463 22.7807C12.1268 20.2539 12.9673 17.7272 13.6476 15.1604C13.8878 14.278 14.0479 13.3556 14.0479 13.155C14.0479 12.9793 13.9625 12.8511 13.8749 12.7195C13.7825 12.5808 13.6877 12.4384 13.6877 12.2326C13.6877 11.6711 14.6882 11.1497 15.7688 11.1497C16.6493 11.1497 17.3697 11.5909 17.4898 11.7914C18.0101 12.6738 18.1301 13.3957 18.1301 13.9572C18.1301 14.4705 18.0789 14.8042 18.0584 14.9377C18.0533 14.9711 18.0501 14.9919 18.0501 14.9999C18.0501 15.0802 18.0901 15.1203 18.1301 15.1203C18.2102 15.1203 18.3302 15.0401 18.5304 14.8796C19.8111 13.9171 22.2925 12.2727 23.6132 12.2727C24.7386 12.2727 25.9257 12.5824 26.7674 13.3105C27.573 12.2912 28.44 11.3065 29.3364 10.3476C30.2169 9.4251 31.7778 8.46254 33.899 8.46254C34.6994 8.46254 35.7 8.62296 36.5805 8.94382C37.8211 9.38499 38.1813 10.5882 38.1813 11.631C38.1813 13.2352 36.9807 15.4411 36.0602 16.5641C33.5788 19.6122 30.6972 22.6604 27.1752 24.786C26.775 25.0267 26.7349 25.0668 26.7349 25.2673C26.7349 25.5079 27.0952 26.27 27.4554 26.4304C27.6955 26.5507 27.9356 26.6309 28.2158 26.6309C29.2519 26.6309 30.4968 25.8543 31.1271 25.4611C31.2272 25.3986 31.3117 25.3459 31.3775 25.3074C32.6871 24.5454 33.7849 23.5935 34.8297 22.6875C35.7646 21.8768 36.6571 21.1029 37.621 20.5347C37.6668 20.5072 37.7116 20.4817 37.7554 20.4583C37.8116 20.3145 37.8681 20.1709 37.9246 20.0275L37.925 20.0265L37.9273 20.0206C38.0125 19.8041 38.0977 19.5879 38.1813 19.3716C39.9423 14.9197 43.3843 8.62296 46.3859 3.5294C46.4906 3.35783 46.5929 3.07074 46.7135 2.73271L46.7135 2.73267L46.7135 2.73263C47.1001 1.64833 47.6735 0.0401068 49.1075 0.0401068C49.3785 0.0401068 49.6169 0.0292256 49.8454 0.0187986C50.0555 0.00920717 50.2573 0 50.4682 0C51.2687 0 51.9891 0.320854 52.1492 0.681816C52.3493 1.12299 52.5094 1.48395 52.5094 1.92513C52.5094 2.44652 52.3493 2.9278 52.0691 3.36897C51.1653 4.80804 50.2338 6.21681 49.3081 7.61683C46.5444 11.7964 43.8323 15.8979 42.0635 20.4946C41.9201 20.8665 41.7714 21.2134 41.626 21.5527L41.6259 21.553L41.6259 21.553C41.0812 22.8236 40.5827 23.9867 40.5827 25.9491C40.5827 26.671 40.7828 26.8315 40.9429 26.8315C41.0229 26.8315 41.143 26.7914 41.2631 26.7111C42.1551 26.1152 42.9063 25.3108 43.6149 24.5521C44.5263 23.5763 45.3672 22.6759 46.3462 22.3918C46.5938 21.5919 46.9024 20.808 47.2097 20.0277L47.2101 20.0267C47.2961 19.8082 47.3821 19.5899 47.4665 19.3716C49.2275 14.9197 52.6694 8.62296 55.6711 3.5294C55.7758 3.35783 55.8781 3.07074 55.9986 2.73271L55.9987 2.73267L55.9987 2.73263C56.3853 1.64833 56.9587 0.0401068 58.3926 0.0401068C58.6637 0.0401068 58.9021 0.0292256 59.1306 0.0187986C59.3407 0.00920717 59.5425 0 59.7534 0C60.5539 0 61.2743 0.320854 61.4344 0.681816C61.6345 1.12299 61.7946 1.48395 61.7946 1.92513C61.7946 2.44652 61.6345 2.9278 61.3543 3.36897C60.4505 4.80804 59.519 6.21681 58.5933 7.61682C55.8296 11.7964 53.1175 15.8979 51.3487 20.4946C51.2053 20.8666 51.0565 21.2136 50.9111 21.553C50.3664 22.8236 49.8679 23.9867 49.8679 25.9491C49.8679 26.671 50.068 26.8315 50.2281 26.8315C50.3081 26.8315 50.4282 26.7914 50.5483 26.7111C51.4402 26.1152 52.1915 25.3108 52.9001 24.5521ZM5.70319 8.75648L5.70317 8.75649L5.70314 8.75649C5.44569 8.77926 4.94543 8.8235 4.20235 8.8235C3.0417 8.8235 1.88105 8.66307 1.28072 7.94115C1.0806 7.70051 1.0806 7.41976 1.0806 7.0588C1.0806 6.33688 1.20067 5.53474 1.40078 5.33421C1.6009 5.13367 1.84103 4.89303 2.3213 4.89303C2.6518 4.89303 2.83377 4.93644 3.0546 4.98913C3.39534 5.07042 3.8286 5.17378 5.04282 5.17378C7.12398 5.17378 10.0056 4.7326 10.806 4.57218C12.6471 4.21122 14.6082 3.93047 16.7694 3.93047C18.5304 3.93047 21.0518 5.61495 21.0518 6.29677C21.0518 7.01869 20.7716 7.45987 20.2113 7.86094C19.9712 8.02136 19.2908 8.30211 18.8906 8.30211C18.4103 8.30211 18.1301 8.02136 17.85 7.74061C17.7299 7.62029 16.9295 7.33955 16.7294 7.33955C14.9684 7.33955 13.0473 7.58019 11.4464 7.94115C11.5264 8.06147 11.5665 8.18179 11.5665 8.262C11.5665 8.37401 11.5165 8.461 11.2562 8.91432L11.2562 8.91432L11.2562 8.91435L11.2562 8.91444C11.0504 9.27274 10.7133 9.85986 10.1657 10.8689C7.56423 15.6818 5.88329 20.294 4.76266 26.1897C4.6426 26.8315 4.60257 27.6737 4.60257 28.4758C4.60257 29.3983 4.16233 29.9598 3.28184 29.9598C2.6815 29.9598 1.80101 29.679 0.720403 29.0373C0.16009 28.7165 0 28.1149 0 27.5534C0 26.9518 0.120067 26.3502 0.16009 26.1897C1.64092 20.294 3.32186 14.9598 5.76322 9.70585C6.04338 9.10425 6.0834 8.98393 6.0834 8.90371C6.0834 8.78339 6.00336 8.74329 5.88329 8.74329C5.8524 8.74329 5.79238 8.74859 5.70321 8.75648L5.70319 8.75648ZM33.8589 12.0722C33.8589 12.4331 33.7389 12.6738 33.2586 13.4358C33.0489 13.7686 32.9689 13.956 32.8953 14.1284C32.8004 14.3508 32.7163 14.5481 32.3781 14.9999C31.2175 16.5641 29.7766 18.1283 27.8956 19.8529C27.3753 20.3342 27.2953 20.3342 27.2152 20.3342C27.1752 20.3342 27.0952 20.294 27.0952 20.2138C27.0952 20.0935 27.1352 19.9331 27.5354 19.0908C28.7761 16.4839 30.2969 14.7593 31.9779 13.0748C32.8984 12.1524 33.4587 11.8315 33.6588 11.8315C33.7789 11.8315 33.8589 11.8716 33.8589 12.0722ZM64.7562 13.2352C64.7162 13.155 64.6762 13.1149 64.6361 13.1149C64.5161 13.1149 64.2759 13.155 63.9558 13.5962C61.9947 16.163 59.033 20.8154 59.033 23.9438C59.033 24.1443 59.073 24.6657 59.2331 25.1069C59.3532 25.4277 59.6734 25.9491 59.8735 25.9491C60.1136 25.9491 60.3938 25.8288 60.874 25.1069C60.927 25.0272 60.98 24.9476 61.033 24.868C63.1418 21.7005 65.2365 18.5543 65.2365 14.7593C65.2365 14.3181 65.2365 13.7566 65.0764 13.6363C64.8763 13.4759 64.7962 13.3556 64.7562 13.2352Z" fill="#251C15"/>
</svg>
