<svg width="120" height="20" viewBox="0 0 120 20" fill="none" xmlns="http://www.w3.org/2000/svg">
<g opacity="0.2">
<rect opacity="0.01" x="50" width="20" height="20" fill="black"/>
<path fill-rule="evenodd" clip-rule="evenodd" d="M51.6667 10.0001C51.6667 5.39771 55.3976 1.66675 60 1.66675C62.2102 1.66675 64.3298 2.54472 65.8926 4.10752C67.4554 5.67033 68.3334 7.78994 68.3334 10.0001C68.3334 14.6025 64.6024 18.3334 60 18.3334C55.3976 18.3334 51.6667 14.6025 51.6667 10.0001ZM53.3334 10.0001C53.3334 13.682 56.3181 16.6667 60 16.6667C61.7681 16.6667 63.4638 15.9644 64.7141 14.7141C65.9643 13.4639 66.6667 11.7682 66.6667 10.0001C66.6667 6.31818 63.6819 3.33341 60 3.33341C56.3181 3.33341 53.3334 6.31818 53.3334 10.0001Z" fill="black"/>
<path d="M60 14.1667C60.4603 14.1667 60.8334 13.7936 60.8334 13.3333C60.8334 12.8731 60.4603 12.5 60 12.5C59.5398 12.5 59.1667 12.8731 59.1667 13.3333C59.1667 13.7936 59.5398 14.1667 60 14.1667Z" fill="black"/>
<path d="M60 5.83325C59.5398 5.83325 59.1667 6.20635 59.1667 6.66659V10.8333C59.1667 11.2935 59.5398 11.6666 60 11.6666C60.4603 11.6666 60.8334 11.2935 60.8334 10.8333V6.66659C60.8334 6.20635 60.4603 5.83325 60 5.83325Z" fill="black"/>
</g>
<g opacity="0.2">
<rect opacity="0.01" x="100" width="20" height="20" fill="black"/>
<path fill-rule="evenodd" clip-rule="evenodd" d="M117.1 12.6749L115.6 11.1666V7.4499C115.641 4.59602 113.571 2.14898 110.75 1.71657C109.148 1.50562 107.533 1.9947 106.317 3.05887C105.102 4.12304 104.403 5.65921 104.4 7.2749V11.1666L102.9 12.6749C102.515 13.0665 102.402 13.6507 102.612 14.1579C102.823 14.6652 103.317 14.9968 103.867 14.9999H106.667V15.2832C106.748 17.0446 108.238 18.4086 110 18.3332C111.762 18.4086 113.252 17.0446 113.333 15.2832V14.9999H116.133C116.683 14.9968 117.177 14.6652 117.388 14.1579C117.598 13.6507 117.485 13.0665 117.1 12.6749ZM111.667 15.2832C111.571 16.116 110.836 16.7256 110 16.6666C109.164 16.7256 108.429 16.116 108.333 15.2832V14.9999H111.667V15.2832ZM105.575 12.3499L104.592 13.3332H115.408L114.417 12.3499C114.105 12.0354 113.931 11.6096 113.933 11.1666V7.41657C113.976 5.39832 112.526 3.65677 110.533 3.33324C109.402 3.18555 108.262 3.54199 107.417 4.30824C106.56 5.05605 106.068 6.13756 106.067 7.2749V11.1666C106.067 11.6108 105.89 12.0367 105.575 12.3499Z" fill="black"/>
</g>
<g opacity="0.2">
<rect opacity="0.01" width="20" height="20" fill="black"/>
<path fill-rule="evenodd" clip-rule="evenodd" d="M1.66669 10.0001C1.66669 5.39771 5.39765 1.66675 10 1.66675C12.2102 1.66675 14.3298 2.54472 15.8926 4.10752C17.4554 5.67033 18.3334 7.78994 18.3334 10.0001C18.3334 14.6025 14.6024 18.3334 10 18.3334C5.39765 18.3334 1.66669 14.6025 1.66669 10.0001ZM3.33335 10.0001C3.33335 13.682 6.31812 16.6667 10 16.6667C11.7681 16.6667 13.4638 15.9644 14.7141 14.7141C15.9643 13.4639 16.6667 11.7682 16.6667 10.0001C16.6667 6.31818 13.6819 3.33341 10 3.33341C6.31812 3.33341 3.33335 6.31818 3.33335 10.0001Z" fill="black"/>
<path d="M12.5 9.16675H10.8334V7.50008C10.8334 7.03984 10.4603 6.66675 10 6.66675C9.53978 6.66675 9.16669 7.03984 9.16669 7.50008V9.16675H7.50002C7.03978 9.16675 6.66669 9.53984 6.66669 10.0001C6.66669 10.4603 7.03978 10.8334 7.50002 10.8334H9.16669V12.5001C9.16669 12.9603 9.53978 13.3334 10 13.3334C10.4603 13.3334 10.8334 12.9603 10.8334 12.5001V10.8334H12.5C12.9603 10.8334 13.3334 10.4603 13.3334 10.0001C13.3334 9.53984 12.9603 9.16675 12.5 9.16675Z" fill="black"/>
</g>
</svg>
