<svg width="57" height="35" viewBox="0 0 57 35" fill="none" xmlns="http://www.w3.org/2000/svg">
<path fill-rule="evenodd" clip-rule="evenodd" d="M47.4462 13.0244C47.4069 12.359 47.3703 11.7404 47.7157 11.2657C45.8253 10.0235 45.0094 8.32954 44.4528 6.73097C44.3941 6.57913 44.3831 6.42732 44.3722 6.278C44.363 6.15254 44.354 6.02884 44.3169 5.90835C43.9654 4.77522 43.7477 3.31626 45.0903 2.5411C45.6542 2.21554 46.5138 1.90567 47.5621 1.85975C48.019 1.84451 48.2072 1.86015 48.503 1.93792C49.9553 2.31127 50.3048 2.32701 50.9224 1.97043C51.079 1.87997 51.252 1.76603 51.4633 1.62679C51.7951 1.40812 52.2217 1.12706 52.8287 0.776597C54.0907 0.047952 55.4075 -0.153 55.865 0.111108C56.134 0.266466 56.0269 0.452635 55.866 0.66981C55.7579 0.801771 55.736 0.884003 55.7158 0.959639C55.6909 1.05293 55.6686 1.13619 55.4908 1.29036C55.2212 1.50547 55.0069 1.72416 54.7892 1.9464C54.5517 2.1888 54.3101 2.43541 53.988 2.68619C53.6659 2.93431 53.3168 3.13585 53.0483 3.29088C52.9409 3.35289 52.9411 3.44601 53.1026 3.6013C55.2568 5.65118 56.6042 7.48329 56.7692 9.50092L56.774 9.56768C56.8295 10.3349 56.9009 11.3202 55.7791 11.9679C55.4837 12.1384 55.0808 12.2779 54.6777 12.3552C53.2089 12.6468 51.7876 12.7731 50.8859 12.5914C51.0453 13.7 51.0429 15.1684 49.7113 15.9372C49.5502 16.0302 49.3622 16.1077 49.1742 16.1852L49.1742 16.1852C47.9654 16.6345 46.7561 16.8045 45.7615 16.7884C45.3432 16.7822 45.0101 16.7538 44.7122 16.6945C44.7865 17.7115 44.6184 18.8776 43.4816 19.5339C43.3205 19.6269 43.1325 19.7044 42.9445 19.7819L42.9445 19.7819C41.7357 20.2312 40.5264 20.4012 39.5318 20.3851C38.5359 20.3704 38.0226 20.2294 37.3175 19.847C37.2105 20.6875 36.8876 21.7505 36.1234 23.3472C35.9627 23.6885 35.6943 23.9367 35.2379 24.2002C34.4323 24.6653 33.1964 24.975 31.3153 25.3153C30.2942 25.5009 29.0574 25.3449 27.901 25.0183C27.0673 24.785 26.2872 24.4897 25.6683 24.1323C25.2916 23.9148 24.9955 23.6819 24.7261 23.4024C23.9088 22.5514 23.3396 21.6399 22.9443 20.6923L22.9041 20.7052L22.9041 20.7052C22.6388 20.7901 22.3797 20.8731 22.2487 20.9488C22.1144 21.0263 21.6053 21.9106 21.3378 22.6243C20.5352 24.7345 20.674 27.1401 23.1511 29.3764C23.528 29.718 23.663 30.044 23.6101 30.4785C23.5836 30.6803 23.4226 30.8354 23.2346 30.9439C22.805 31.1919 22.3212 31.2537 21.2997 31.2221C20.6814 31.2062 20.0361 31.0816 19.7132 30.8952C19.1067 30.545 18.9443 30.015 18.7833 29.4893C18.6729 29.1287 18.5631 28.7702 18.311 28.4733C17.2065 27.1535 16.0751 25.8492 14.8094 24.5913C14.3785 24.1565 13.867 23.7372 13.7325 23.6595C13.6146 23.5914 13.4713 23.5748 13.3243 23.5578C13.1692 23.5399 13.01 23.5214 12.8719 23.4417C12.4952 23.2242 12.8167 22.6347 13.5417 22.2161C14.1325 21.875 14.9118 21.7668 15.1269 21.798C16.068 21.9383 16.6329 22.1714 17.0096 22.3889C17.354 22.5878 17.5435 22.7369 17.6193 22.7965L17.6193 22.7965C17.6383 22.8114 17.6501 22.8207 17.6555 22.8238C17.7093 22.8549 17.7631 22.8549 17.79 22.8394C17.8437 22.8084 17.8704 22.7309 17.897 22.5912C18.1105 21.7222 18.6721 20.1241 19.5582 19.6125C20.3132 19.1766 21.3175 18.8366 22.3707 18.7927C22.2273 18.0858 22.1484 17.3685 22.1064 16.6498C22.0783 15.9514 22.4797 14.9739 23.9028 14.1523C24.4399 13.8422 25.2188 13.5168 26.0248 13.3C27.1533 12.9903 28.2022 13.3168 28.9018 13.7208C29.9782 14.3422 30.6526 15.6618 30.7884 16.4533C31.1687 18.5953 31.2804 20.8922 30.3436 23.0799C30.2365 23.3281 30.2366 23.3592 30.3711 23.4368C30.5326 23.53 31.2855 23.6857 31.6348 23.6083C31.8766 23.5619 32.0916 23.5 32.2795 23.3914C32.9747 22.9901 33.2889 22.207 33.4479 21.8106C33.4732 21.7476 33.4945 21.6944 33.5129 21.654C33.8802 20.8516 33.9781 20.0576 34.0713 19.3019C34.1546 18.6257 34.2342 17.9802 34.4997 17.3868C34.5119 17.3584 34.5249 17.3312 34.5385 17.3051C34.4798 17.2277 34.4215 17.1503 34.3632 17.0729L34.3631 17.0728C34.2741 16.9546 34.1851 16.8366 34.0952 16.7192C32.2898 14.3126 30.3744 10.5402 28.9709 7.4044C28.926 7.29741 28.8021 7.14653 28.6561 6.96889C28.188 6.39912 27.4937 5.55404 28.4558 4.99858C28.6376 4.8936 28.7903 4.79703 28.9366 4.70448C29.0712 4.61936 29.2004 4.53764 29.3419 4.45593C29.8789 4.14587 30.5775 3.9911 30.9271 4.06891C31.3574 4.16229 31.707 4.2401 32.003 4.41099C32.3528 4.61296 32.5683 4.8614 32.6763 5.14082C33.0354 6.04835 33.3556 6.95489 33.6738 7.85578C34.6238 10.5453 35.5561 13.1847 37.4533 15.6504C37.6067 15.85 37.7397 16.0421 37.8698 16.2299L37.8698 16.2299C38.3569 16.933 38.8027 17.5767 40.1194 18.3369C40.6038 18.6165 40.8457 18.6011 40.9531 18.5391C41.0068 18.5081 41.0604 18.4461 41.0872 18.3685C41.2858 17.7921 41.2501 17.1896 41.2165 16.6212C41.1733 15.8901 41.1334 15.2156 41.5996 14.7264C41.2291 14.3206 40.9102 13.8974 40.5928 13.4761C40.5037 13.3579 40.4148 13.2399 40.3249 13.1225C38.5195 10.7159 36.6041 6.94346 35.2006 3.80768C35.1557 3.70069 35.0318 3.54983 34.8858 3.37221L34.8858 3.37217C34.4177 2.8024 33.7234 1.95732 34.6855 1.40186C34.8673 1.29688 35.02 1.20031 35.1663 1.10776C35.3009 1.02264 35.4301 0.940923 35.5716 0.859216C36.1086 0.549154 36.8072 0.394383 37.1568 0.472192C37.5871 0.565572 37.9367 0.643382 38.2327 0.814276C38.5825 1.01624 38.798 1.26468 38.906 1.5441C39.2651 2.4516 39.5853 3.3581 39.9035 4.25896L39.9035 4.25901L39.9035 4.25908L39.9035 4.2591C40.8535 6.94864 41.7858 9.58794 43.683 12.0537C43.8364 12.2533 43.9694 12.4454 44.0995 12.6332C44.5866 13.3363 45.0324 13.98 46.3491 14.7401C46.8335 15.0198 47.0754 15.0044 47.1828 14.9424C47.2365 14.9114 47.2901 14.8494 47.3169 14.7718C47.5155 14.1954 47.4798 13.5928 47.4462 13.0244ZM5.18272 25.1881C5.02529 25.2966 4.71932 25.5075 4.22073 25.7954C3.44202 26.245 2.55567 26.6324 1.66853 26.5853C1.37282 26.5696 1.18446 26.4609 0.942276 26.3211C0.457918 26.0414 0.000297773 25.6842 1.45891e-05 25.529C-0.000268387 25.3738 -0.000608249 25.1876 0.321618 25.0015C0.543359 24.8735 0.694574 24.8198 0.87808 24.7547C1.16124 24.6542 1.52127 24.5264 2.33593 24.0561C3.73224 23.2499 5.3696 21.9628 5.79901 21.5906C6.79203 20.7376 7.91942 19.8692 9.36944 19.032C10.5509 18.3499 13.3728 18.0257 13.8302 18.2898C14.3146 18.5695 14.4226 18.8489 14.3158 19.2213C14.2623 19.3764 13.9942 19.7488 13.7257 19.9038C13.4034 20.0898 13.0271 20.0896 12.6508 20.0894C12.4895 20.0893 11.7641 20.2906 11.6298 20.3681C10.4483 21.0502 9.32089 21.8876 8.48898 22.6475C8.62341 22.6631 8.73099 22.6942 8.78481 22.7253C8.85995 22.7687 8.88481 22.8217 9.01431 23.0982L9.01432 23.0982L9.01432 23.0982C9.11668 23.3166 9.28443 23.6747 9.59405 24.2778C11.0777 27.1497 13.0444 29.5875 16.2482 32.3053C16.5982 32.6004 17.1364 32.9422 17.6746 33.2529C18.2935 33.6102 18.3748 33.9983 17.7841 34.3393C17.3813 34.5719 16.6022 34.8042 15.4466 34.9742C14.8554 35.067 14.3444 34.8959 13.9677 34.6784C13.564 34.4454 13.241 34.1659 13.1602 34.0882C10.1981 31.2308 7.74703 28.5134 5.85996 25.5326C5.64429 25.191 5.59042 25.1289 5.5366 25.0978C5.45588 25.0512 5.37526 25.0667 5.29471 25.1132C5.27398 25.1252 5.23726 25.1505 5.18272 25.1881ZM26.2978 15.566C26.54 15.7058 26.6209 15.8455 26.8099 16.3267C26.8925 16.5369 26.9646 16.6405 27.0309 16.7358C27.1165 16.8587 27.1924 16.9677 27.2686 17.2737C27.5394 18.3292 27.6221 19.4932 27.5171 20.8899C27.491 21.2779 27.4373 21.3089 27.3836 21.3399C27.3567 21.3554 27.2761 21.3708 27.2223 21.3398C27.1416 21.2932 27.0608 21.2155 26.7642 20.7342C25.8476 19.2438 25.7109 17.9867 25.7085 16.683C25.7072 15.9691 25.8678 15.6278 26.0021 15.5503C26.0827 15.5038 26.1633 15.4883 26.2978 15.566ZM47.8079 4.04812C47.7273 4.03255 47.6735 4.03252 47.6467 4.04802C47.5661 4.09453 47.4319 4.20309 47.5131 4.49801C47.9195 6.25195 49.0538 9.20134 51.1527 10.4131C51.2873 10.4908 51.6639 10.6773 52.0673 10.7862C52.3632 10.8639 52.9278 10.9419 53.0621 10.8644C53.2232 10.7713 53.3304 10.6162 53.1683 10.1505C53.1504 10.0992 53.1325 10.0478 53.1147 9.99642C52.4044 7.95257 51.6989 5.92248 49.1527 4.45245C48.8567 4.28155 48.48 4.06405 48.2918 4.07946C48.0499 4.09483 47.9155 4.07923 47.8079 4.04812Z" fill="#251C15"/>
</svg>
