<svg width="18" height="8" viewBox="0 0 18 8" fill="none" xmlns="http://www.w3.org/2000/svg">
<path fill-rule="evenodd" clip-rule="evenodd" d="M13.1916 3.34884L17.1683 3.34546C17.3892 3.34493 17.6012 3.39535 17.7574 3.48551C17.9135 3.57568 18.0009 3.69811 18 3.82561C18.0009 3.95312 17.9135 4.07555 17.7574 4.16571C17.6012 4.25588 17.3892 4.3063 17.1683 4.30577L13.1916 4.30239C13.0156 5.14589 12.3534 5.93072 11.3116 6.53073C8.7239 8.02472 4.52845 8.02472 1.94078 6.53073C-0.646891 5.03674 -0.646891 2.61449 1.94078 1.1205C4.52845 -0.373492 8.7239 -0.373492 11.3116 1.1205C12.3534 1.72051 13.0156 2.50534 13.1916 3.34884ZM3.11214 1.79682C1.17139 2.91731 1.17139 4.73399 3.11214 5.85449C5.0529 6.97498 8.19948 6.97498 10.1402 5.85449C12.081 4.73399 12.081 2.91731 10.1402 1.79682C8.19948 0.676323 5.0529 0.676323 3.11214 1.79682Z" fill="black"/>
</svg>
