<svg width="18" height="10" viewBox="0 0 18 10" fill="none" xmlns="http://www.w3.org/2000/svg">
<path fill-rule="evenodd" clip-rule="evenodd" d="M4.73646 9.53082C5.81999 8.90524 5.81999 7.89098 4.73646 7.26541C3.65293 6.63983 1.89619 6.63983 0.812657 7.26541C-0.270871 7.89098 -0.270871 8.90524 0.812657 9.53082C1.89619 10.1564 3.65293 10.1564 4.73646 9.53082ZM10.6222 6.13272C11.7057 5.50714 11.7057 4.49288 10.6222 3.86731C9.53864 3.24173 7.7819 3.24173 6.69837 3.86731C5.61484 4.49288 5.61484 5.50714 6.69837 6.13272C7.7819 6.75829 9.53864 6.75829 10.6222 6.13272ZM16.5079 0.469183C17.5914 1.09476 17.5914 2.10902 16.5079 2.73459C15.4244 3.36017 13.6676 3.36017 12.5841 2.73459C11.5006 2.10902 11.5006 1.09476 12.5841 0.469183C13.6676 -0.156392 15.4244 -0.156392 16.5079 0.469183Z" fill="#CDCCCA"/>
</svg>
