<svg width="26" height="15" viewBox="0 0 26 15" fill="none" xmlns="http://www.w3.org/2000/svg">
<g opacity="0.2">
<rect opacity="0.01" width="14.9903" height="14.9903" transform="matrix(0.866589 -0.500325 0.866589 0.500325 0 7.5)" fill="black"/>
<path fill-rule="evenodd" clip-rule="evenodd" d="M17.3206 10.4438C17.524 10.4433 17.7188 10.396 17.8618 10.3125C18.0065 10.2299 18.0883 10.1175 18.0891 10L18.0837 5.14063C18.0723 3.86622 16.2857 2.83475 14.0784 2.82813C11.8676 2.82993 10.0761 3.86422 10.073 5.14063L10.073 5.81563L8.90387 5.81563C6.69306 5.81743 4.90162 6.85172 4.8985 8.12813C4.90997 9.40254 6.69653 10.434 8.90386 10.4406L17.3206 10.4438ZM6.43029 8.12496C6.42949 7.74707 6.69067 7.38471 7.15559 7.11871C7.61631 6.85029 8.24393 6.6995 8.89846 6.69996L10.8416 6.70309C11.0457 6.70357 11.2417 6.65697 11.386 6.57365C11.5303 6.49032 11.611 6.37717 11.6102 6.25934L11.6048 5.13746C11.643 4.35979 12.726 3.73455 14.073 3.71246C15.4376 3.71453 16.543 4.35271 16.5466 5.14059L16.552 9.55621L8.90388 9.55309C7.53924 9.55102 6.43387 8.91283 6.43029 8.12496Z" fill="black"/>
</g>
</svg>
