<svg width="26" height="15" viewBox="0 0 26 15" fill="none" xmlns="http://www.w3.org/2000/svg">
<g opacity="0.2">
<rect opacity="0.01" width="14.9903" height="14.9903" transform="matrix(0.866589 -0.500325 0.866589 0.500325 0 7.5)" fill="black"/>
<path d="M12.9904 7.49995C13.2894 7.32736 13.2894 7.04754 12.9904 6.87495C12.6915 6.70236 12.2068 6.70236 11.9079 6.87495C11.609 7.04754 11.609 7.32736 11.9079 7.49995C12.2068 7.67254 12.6915 7.67254 12.9904 7.49995Z" fill="black"/>
<path d="M15.1555 6.24994C15.4545 6.07735 15.4545 5.79753 15.1555 5.62494C14.8566 5.45235 14.3719 5.45235 14.073 5.62494C13.7741 5.79753 13.7741 6.07735 14.073 6.24994C14.3719 6.42253 14.8566 6.42253 15.1555 6.24994Z" fill="black"/>
<path d="M10.8253 8.74993C11.1243 8.57734 11.1243 8.29751 10.8253 8.12493C10.5264 7.95234 10.0417 7.95234 9.7428 8.12493C9.44387 8.29751 9.44387 8.57734 9.7428 8.74993C10.0417 8.92251 10.5264 8.92251 10.8253 8.74993Z" fill="black"/>
<path fill-rule="evenodd" clip-rule="evenodd" d="M4.33021 6.87496L11.9079 2.49996C12.8047 1.98219 14.2587 1.98219 15.1555 2.49996L20.5682 5.62496C21.465 6.14272 21.465 6.98219 20.5682 7.49996L14.912 10.7656C14.8035 10.8236 14.7264 10.8985 14.69 10.9812L13.732 13.2343C13.698 13.3112 13.6288 13.3814 13.5317 13.4375C13.4385 13.491 13.3229 13.5297 13.1961 13.55C12.9302 13.593 12.6448 13.55 12.4492 13.4375L4.33021 8.74996C3.43341 8.23219 3.43341 7.39272 4.33021 6.87496ZM19.4857 6.87503C19.7846 6.70244 19.7846 6.42262 19.4857 6.25003L14.073 3.12503C13.7741 2.95244 13.2894 2.95244 12.9905 3.12503L5.41274 7.50003C5.11381 7.67262 5.11381 7.95244 5.41274 8.12503L12.5737 12.2594L13.2232 10.7594C13.324 10.5251 13.5336 10.3112 13.8294 10.1407L19.4857 6.87503Z" fill="black"/>
</g>
</svg>
