<svg width="55" height="34" viewBox="0 0 55 34" fill="none" xmlns="http://www.w3.org/2000/svg">
<path fill-rule="evenodd" clip-rule="evenodd" d="M45.9426 12.6117C45.9044 11.9673 45.869 11.3683 46.2035 10.9087C44.373 9.70583 43.583 8.06556 43.0441 6.51764C42.9872 6.37064 42.9765 6.22367 42.9659 6.0791L42.9659 6.07906L42.9659 6.07902C42.9571 5.95754 42.9483 5.83776 42.9125 5.7211C42.5721 4.62388 42.3613 3.21115 43.6613 2.46056C44.2074 2.14532 45.0397 1.84527 46.0548 1.80081C46.4972 1.78605 46.6794 1.80119 46.9659 1.8765C48.3721 2.23802 48.7105 2.25325 49.3085 1.90798C49.4602 1.82039 49.6277 1.71007 49.8323 1.57526L49.8323 1.57523C50.1536 1.36349 50.5667 1.09134 51.1544 0.751978C52.3765 0.0464247 53.6515 -0.14816 54.0945 0.107578C54.3551 0.258013 54.2513 0.438282 54.0955 0.648573C53.9908 0.776353 53.9696 0.85598 53.95 0.929222C53.9259 1.01956 53.9044 1.10018 53.7322 1.24946C53.4711 1.45775 53.2636 1.66951 53.0528 1.88471C52.8229 2.11942 52.5889 2.35822 52.277 2.60106C51.9651 2.84131 51.6271 3.03646 51.3671 3.18658C51.2631 3.24663 51.2633 3.33679 51.4197 3.48716C53.5056 5.47207 54.8103 7.24612 54.97 9.19981L54.9747 9.26445C55.0285 10.0073 55.0976 10.9615 54.0113 11.5886C53.7253 11.7537 53.3351 11.8888 52.9448 11.9637C51.5226 12.246 50.1463 12.3683 49.2733 12.1923C49.4276 13.2658 49.4253 14.6877 48.1359 15.4321C47.9799 15.5222 47.7978 15.5972 47.6158 15.6722C46.4453 16.1073 45.2743 16.2719 44.3112 16.2563C43.9062 16.2503 43.5837 16.2228 43.2951 16.1654C43.3671 17.1501 43.2043 18.2793 42.1036 18.9148C41.9476 19.0049 41.7656 19.0799 41.5835 19.155C40.413 19.5901 39.242 19.7546 38.2789 19.739C37.3146 19.7249 36.8176 19.5883 36.1349 19.2181C36.0312 20.0318 35.7186 21.0612 34.9785 22.6073C34.823 22.9378 34.5631 23.1781 34.1211 23.4333C33.3411 23.8836 32.1443 24.1835 30.3229 24.513C29.3341 24.6927 28.1366 24.5417 27.0167 24.2254C26.2094 23.9995 25.4541 23.7135 24.8548 23.3675C24.49 23.1569 24.2033 22.9313 23.9425 22.6607C23.151 21.8367 22.5999 20.9541 22.2172 20.0365L22.1783 20.049C21.9214 20.1312 21.6705 20.2116 21.5436 20.2849C21.4136 20.3599 20.9206 21.2162 20.6615 21.9073C19.8844 23.9506 20.0188 26.28 22.4174 28.4454C22.7824 28.7762 22.9131 29.0919 22.8618 29.5126C22.8362 29.708 22.6803 29.8581 22.4982 29.9632C22.0822 30.2034 21.6138 30.2632 20.6247 30.2326C20.026 30.2172 19.4011 30.0966 19.0884 29.9161C18.5011 29.577 18.3439 29.0637 18.188 28.5547C18.0811 28.2056 17.9748 27.8584 17.7307 27.5709C16.6612 26.2929 15.5656 25.03 14.3401 23.812C13.9229 23.3909 13.4276 22.9849 13.2973 22.9097C13.1831 22.8438 13.0444 22.8277 12.902 22.8112C12.7519 22.7938 12.5977 22.776 12.464 22.6988C12.0992 22.4882 12.4105 21.9173 13.1125 21.512C13.6846 21.1817 14.4392 21.077 14.6475 21.1072C15.5587 21.243 16.1057 21.4687 16.4705 21.6793C16.804 21.8719 16.9875 22.0162 17.0609 22.074L17.0609 22.074L17.061 22.074C17.0793 22.0885 17.0908 22.0975 17.096 22.1005C17.1481 22.1306 17.2002 22.1306 17.2262 22.1156C17.2782 22.0856 17.304 22.0105 17.3298 21.8752C17.5365 21.0338 18.0803 19.4863 18.9383 18.9909C19.6694 18.5688 20.6419 18.2397 21.6618 18.1971C21.5229 17.5126 21.4465 16.8181 21.4058 16.1221C21.3786 15.4459 21.7673 14.4994 23.1453 13.7038C23.6653 13.4035 24.4196 13.0884 25.2001 12.8785C26.2927 12.5786 27.3084 12.8948 27.9859 13.2859C29.0281 13.8877 29.6812 15.1654 29.8127 15.9319C30.1809 18.0059 30.2891 20.2301 29.3819 22.3484C29.2782 22.5888 29.2783 22.6189 29.4086 22.6941C29.5649 22.7843 30.294 22.935 30.6322 22.8601C30.8664 22.8152 31.0745 22.7552 31.2565 22.6501C31.9297 22.2615 32.2339 21.5033 32.3879 21.1193L32.3879 21.1193C32.4124 21.0584 32.433 21.0068 32.4508 20.9677C32.8065 20.1907 32.9013 19.4219 32.9915 18.6902L32.9915 18.6902C33.0722 18.0354 33.1492 17.4104 33.4063 16.8357C33.4181 16.8082 33.4307 16.7819 33.4439 16.7567C33.3871 16.6817 33.3305 16.6067 33.274 16.5317C33.1878 16.4173 33.1017 16.303 33.0147 16.1893C31.2665 13.859 29.4118 10.2061 28.0528 7.16973C28.0093 7.06613 27.8893 6.92003 27.7479 6.74802C27.2947 6.19631 26.6224 5.37801 27.554 4.84015C27.7301 4.7385 27.8779 4.64499 28.0195 4.55538C28.1499 4.47295 28.2749 4.39383 28.412 4.31471C28.932 4.01447 29.6085 3.86461 29.947 3.93995C30.3636 4.03037 30.7021 4.10572 30.9887 4.27119C31.3275 4.46676 31.5361 4.70733 31.6407 4.97789C31.9885 5.85664 32.2985 6.73443 32.6066 7.60676L32.6066 7.60679L32.6067 7.60682L32.6067 7.60685C33.5265 10.2112 34.4292 12.7668 36.2664 15.1544C36.4149 15.3477 36.5437 15.5337 36.6696 15.7155L36.6697 15.7155C37.1413 16.3964 37.573 17.0197 38.8479 17.7557C39.3169 18.0265 39.5512 18.0116 39.6552 17.9516C39.7072 17.9216 39.7591 17.8615 39.785 17.7864C39.9774 17.2283 39.9428 16.6448 39.9103 16.0944C39.8684 15.3865 39.8298 14.7334 40.2812 14.2597C39.9224 13.8667 39.6137 13.4569 39.3063 13.049C39.2201 12.9346 39.134 12.8203 39.047 12.7066C37.2988 10.3762 35.4441 6.7234 34.0851 3.687C34.0416 3.58342 33.9216 3.43736 33.7803 3.26539L33.7803 3.26534L33.7802 3.26529C33.327 2.71358 32.6547 1.89528 33.5863 1.35742C33.7623 1.25577 33.9102 1.16226 34.0518 1.07265C34.1821 0.990221 34.3072 0.911095 34.4442 0.831976C34.9643 0.531741 35.6407 0.381876 35.9793 0.45722C36.3959 0.547638 36.7344 0.622984 37.021 0.788462C37.3597 0.984027 37.5684 1.2246 37.673 1.49516C38.0207 2.37393 38.3308 3.25174 38.6389 4.1241C39.5588 6.7284 40.4615 9.28407 42.2986 11.6717C42.4471 11.865 42.5759 12.0509 42.7019 12.2328L42.7019 12.2328L42.7019 12.2328C43.1736 12.9137 43.6053 13.5369 44.8802 14.273C45.3492 14.5438 45.5834 14.5289 45.6875 14.4688C45.7395 14.4388 45.7914 14.3787 45.8173 14.3036C46.0096 13.7455 45.9751 13.162 45.9426 12.6117ZM5.01848 24.3898C4.86603 24.4949 4.56976 24.6992 4.08697 24.9779C3.33294 25.4132 2.47468 25.7884 1.61565 25.7428C1.32931 25.7276 1.14692 25.6223 0.912416 25.4869C0.443408 25.2161 0.000290796 24.8702 1.6636e-05 24.72C-0.000257731 24.5697 -0.000586868 24.3893 0.311427 24.2092C0.526141 24.0852 0.672564 24.0333 0.850255 23.9702C1.12444 23.8729 1.47306 23.7491 2.2619 23.2937C3.61396 22.5131 5.19943 21.2668 5.61523 20.9064C6.57678 20.0804 7.66844 19.2395 9.0725 18.4289C10.2166 17.7684 12.949 17.4545 13.3919 17.7102C13.8609 17.981 13.9656 18.2516 13.8621 18.6122C13.8103 18.7624 13.5507 19.1229 13.2907 19.273C12.9787 19.4532 12.6143 19.4529 12.2499 19.4527C12.0937 19.4526 11.3913 19.6476 11.2613 19.7226C10.1172 20.3831 9.02549 21.194 8.21995 21.9298C8.35012 21.9449 8.45429 21.975 8.5064 22.0051C8.57917 22.0471 8.60323 22.0985 8.72864 22.3662L8.72865 22.3662L8.72868 22.3663C8.82781 22.5778 8.99023 22.9245 9.29 23.5084C10.7267 26.2893 12.631 28.6498 15.7332 31.2816C16.0721 31.5673 16.5933 31.8982 17.1144 32.1991C17.7137 32.5451 17.7925 32.9208 17.2205 33.2511C16.8305 33.4763 16.076 33.7012 14.9571 33.8658C14.3846 33.9556 13.8898 33.79 13.525 33.5794C13.1342 33.3538 12.8213 33.0831 12.7431 33.0079C9.87492 30.2411 7.50152 27.6098 5.67425 24.7234C5.46542 24.3927 5.41325 24.3325 5.36114 24.3024C5.28297 24.2573 5.20491 24.2723 5.12691 24.3173C5.10684 24.3289 5.07129 24.3534 5.01848 24.3898ZM25.4643 15.0727C25.6988 15.2081 25.7772 15.3434 25.9602 15.8094C26.0402 16.0128 26.11 16.1132 26.1742 16.2054C26.257 16.3244 26.3305 16.43 26.4044 16.7263C26.6665 17.7483 26.7467 18.8755 26.645 20.2279C26.6197 20.6036 26.5677 20.6336 26.5157 20.6636C26.4897 20.6786 26.4116 20.6936 26.3595 20.6635C26.2813 20.6184 26.2031 20.5432 25.916 20.0772C25.0284 18.634 24.896 17.4167 24.8937 16.1543C24.8924 15.4631 25.048 15.1326 25.178 15.0575C25.256 15.0125 25.3341 14.9975 25.4643 15.0727ZM46.2929 3.91986C46.2148 3.90478 46.1627 3.90475 46.1367 3.91976C46.0587 3.9648 45.9288 4.06991 46.0074 4.35548C46.4009 6.05384 47.4993 8.90975 49.5317 10.0831C49.662 10.1584 50.0267 10.3389 50.4173 10.4443C50.7038 10.5197 51.2505 10.5951 51.3805 10.5201C51.5365 10.43 51.6403 10.2798 51.4834 9.82886C51.466 9.77912 51.4487 9.72938 51.4315 9.67964C50.7437 7.70056 50.0605 5.73481 47.595 4.31137C47.3084 4.14589 46.9436 3.93528 46.7615 3.9502C46.5272 3.96508 46.3971 3.94998 46.2929 3.91986Z" fill="#251C15"/>
</svg>
