<svg width="37" height="22" viewBox="0 0 37 22" fill="none" xmlns="http://www.w3.org/2000/svg">
<g opacity="0.2">
<rect opacity="0.01" width="14.2407" height="14.2407" transform="matrix(0.880997 -0.508644 0.880997 0.508644 11.6923 7.24346)" fill="black"/>
<path fill-rule="evenodd" clip-rule="evenodd" d="M28.4884 4.39132L23.2504 3.38327C22.4517 3.22923 21.5707 3.34966 20.9764 3.69413L18.0908 5.36013C17.4942 5.70325 17.2856 6.21185 17.5524 6.67301L19.2984 9.69715C19.3717 9.82355 19.4952 9.93828 19.6591 10.0322L22.6701 11.7706C23.5363 12.2707 24.9405 12.2707 25.8067 11.7706L32.0797 8.14886C32.9458 7.64881 32.9458 6.83805 32.0797 6.338L29.0686 4.59956C28.906 4.50495 28.7073 4.43363 28.4884 4.39132ZM18.9534 6.40138C18.8654 6.24729 18.9363 6.07769 19.1364 5.96376L22.022 4.29776C22.2193 4.18222 22.5131 4.14129 22.78 4.19212L27.0509 5.01607L20.3805 8.86718L18.9534 6.40138ZM24.7612 11.167L31.0342 7.54529C31.3229 7.3786 31.3229 7.10835 31.0342 6.94166L28.4204 5.43261L21.1019 9.65796L23.7157 11.167C24.0044 11.3337 24.4725 11.3337 24.7612 11.167Z" fill="black"/>
<path d="M27.8977 6.94164L25.8067 8.14889C25.518 8.31557 25.518 8.58582 25.8067 8.75251C26.0954 8.91919 26.5635 8.91919 26.8522 8.75251L28.9432 7.54526C29.2319 7.37858 29.2319 7.10833 28.9432 6.94164C28.6545 6.77496 28.1864 6.77496 27.8977 6.94164Z" fill="black"/>
<path d="M24.7611 9.95973C25.0499 9.79305 25.0499 9.5228 24.7611 9.35611C24.4724 9.18943 24.0043 9.18943 23.7156 9.35611C23.4269 9.5228 23.4269 9.79305 23.7156 9.95973C24.0043 10.1264 24.4724 10.1264 24.7611 9.95973Z" fill="black"/>
</g>
<rect opacity="0.1" width="0.749513" height="26.2329" rx="0.374756" transform="matrix(0.880997 -0.508644 0.880997 0.508644 -0.193396 8.76844)" fill="black"/>
</svg>
