<svg width="16" height="16" viewBox="0 0 16 16" fill="none" xmlns="http://www.w3.org/2000/svg">
<path fill-rule="evenodd" clip-rule="evenodd" d="M12.7159 11.4629L15.7371 14.4753C15.9053 14.6421 15.9999 14.8692 15.9999 15.1062C15.9999 15.3431 15.9053 15.5702 15.7371 15.7371C15.5702 15.9053 15.3431 15.9999 15.1062 15.9999C14.8692 15.9999 14.6421 15.9053 14.4753 15.7371L11.4629 12.7159C10.2211 13.6906 8.68753 14.2195 7.10879 14.2176C3.18271 14.2176 0 11.0349 0 7.10879C0 3.18271 3.18271 0 7.10879 0C11.0349 0 14.2176 3.18271 14.2176 7.10879C14.2195 8.68753 13.6906 10.2211 12.7159 11.4629ZM7.10879 1.7772C4.16423 1.7772 1.7772 4.16423 1.7772 7.10879C1.7772 10.0533 4.16423 12.4404 7.10879 12.4404C10.0533 12.4404 12.4404 10.0533 12.4404 7.10879C12.4404 4.16423 10.0533 1.7772 7.10879 1.7772Z" fill="black"/>
</svg>
