<svg width="20" height="20" viewBox="0 0 20 20" fill="none" xmlns="http://www.w3.org/2000/svg">
<g opacity="0.2">
<rect opacity="0.01" width="20" height="20" fill="black"/>
<path d="M10 9.99992C10.4602 9.99992 10.8333 9.62682 10.8333 9.16659C10.8333 8.70635 10.4602 8.33325 10 8.33325C9.53976 8.33325 9.16667 8.70635 9.16667 9.16659C9.16667 9.62682 9.53976 9.99992 10 9.99992Z" fill="black"/>
<path d="M13.3333 9.99992C13.7936 9.99992 14.1667 9.62682 14.1667 9.16659C14.1667 8.70635 13.7936 8.33325 13.3333 8.33325C12.8731 8.33325 12.5 8.70635 12.5 9.16659C12.5 9.62682 12.8731 9.99992 13.3333 9.99992Z" fill="black"/>
<path d="M6.66667 9.99992C7.1269 9.99992 7.5 9.62682 7.5 9.16659C7.5 8.70635 7.1269 8.33325 6.66667 8.33325C6.20643 8.33325 5.83333 8.70635 5.83333 9.16659C5.83333 9.62682 6.20643 9.99992 6.66667 9.99992Z" fill="black"/>
<path fill-rule="evenodd" clip-rule="evenodd" d="M4.16667 2.5H15.8333C17.214 2.5 18.3333 3.61929 18.3333 5V13.3333C18.3333 14.714 17.214 15.8333 15.8333 15.8333H7.125C6.96416 15.8271 6.80497 15.8677 6.66667 15.95L2.925 18.2167C2.79637 18.293 2.64957 18.3333 2.5 18.3333C2.35684 18.3329 2.21621 18.2956 2.09167 18.225C1.8296 18.0777 1.66719 17.8006 1.66667 17.5V5C1.66667 3.61929 2.78596 2.5 4.16667 2.5ZM15.8333 14.1667C16.2936 14.1667 16.6667 13.7936 16.6667 13.3333V5C16.6667 4.53976 16.2936 4.16667 15.8333 4.16667H4.16667C3.70643 4.16667 3.33333 4.53976 3.33333 5V16.025L5.83333 14.525C6.22324 14.2902 6.66985 14.1663 7.125 14.1667H15.8333Z" fill="black"/>
</g>
</svg>
