<svg width="27" height="16" viewBox="0 0 27 16" fill="none" xmlns="http://www.w3.org/2000/svg">
<g opacity="0.2">
<rect opacity="0.01" width="15.4113" height="15.4113" transform="matrix(-0.875982 -0.505748 0.875982 -0.505748 13.5 15.5885)" fill="black"/>
<path d="M10.125 10.3923L16.7962 6.54062L17.2069 9.13545C17.2472 9.38835 17.6351 9.57446 18.0731 9.55114C18.5111 9.52783 18.8335 9.30391 18.7931 9.05101L18.2306 5.47866C18.2227 5.45224 18.2114 5.42618 18.1969 5.40072C18.1687 5.38448 18.18 5.3585 18.1631 5.33577C18.1241 5.28381 18.0688 5.23646 18 5.19612C17.9301 5.15639 17.8481 5.12445 17.7581 5.10194C17.73 5.0857 17.685 5.0922 17.6456 5.08245C17.6015 5.07405 17.5564 5.06754 17.5106 5.06297L11.3231 4.73821C11.0875 4.72581 10.8545 4.77461 10.6875 4.87136C10.5558 4.94709 10.4742 5.04706 10.4569 5.1539C10.4372 5.27538 10.5021 5.39638 10.6371 5.49021C10.7722 5.58404 10.9664 5.64298 11.1769 5.65403L15.6712 5.8911L8.99998 9.74275C8.68932 9.92211 8.68933 10.2129 8.99999 10.3923C9.31065 10.5716 9.81432 10.5716 10.125 10.3923Z" fill="black"/>
</g>
</svg>
