<svg width="9" height="5" viewBox="0 0 9 5" fill="none" xmlns="http://www.w3.org/2000/svg">
<path d="M4.33015 1.9391L7.48756 0.116166C7.75584 -0.0387225 8.1908 -0.0387225 8.45907 0.116166C8.72735 0.271055 8.72735 0.52218 8.45907 0.677069L5.30166 2.5L8.45907 4.32293C8.72735 4.47782 8.72735 4.72894 8.45907 4.88383C8.1908 5.03872 7.75584 5.03872 7.48756 4.88383L4.33015 3.0609L1.17274 4.88383C0.904466 5.03872 0.469505 5.03872 0.20123 4.88383C-0.0670455 4.72894 -0.0670454 4.47782 0.20123 4.32293L3.35864 2.5L0.20123 0.677069C-0.0670454 0.52218 -0.0670453 0.271055 0.20123 0.116166C0.469506 -0.0387225 0.904466 -0.0387224 1.17274 0.116166L4.33015 1.9391Z" fill="white"/>
</svg>
